<mxfile host="app.diagrams.net" modified="2023-09-25T20:12:30.758Z" agent="Mozilla/5.0 (X11; Linux x86_64; rv:109.0) Gecko/20100101 Firefox/117.0" etag="RJwUjCyivaSl3ncCjHY0" version="21.8.2" type="google" pages="3">
  <diagram name="Page-1" id="Vtq19uJocOTiTlhImBpB">
    <mxGraphModel grid="1" page="1" gridSize="10" guides="1" tooltips="1" connect="1" arrows="1" fold="1" pageScale="1" pageWidth="850" pageHeight="1100" math="0" shadow="0">
      <root>
        <mxCell id="0" />
        <mxCell id="1" parent="0" />
        <mxCell id="Av_qKmk5VdH78iRkDTVT-15" style="edgeStyle=orthogonalEdgeStyle;rounded=0;orthogonalLoop=1;jettySize=auto;html=1;exitX=0.5;exitY=1;exitDx=0;exitDy=0;entryX=0;entryY=0.5;entryDx=0;entryDy=0;" edge="1" parent="1" source="Av_qKmk5VdH78iRkDTVT-1" target="Av_qKmk5VdH78iRkDTVT-13">
          <mxGeometry relative="1" as="geometry" />
        </mxCell>
        <mxCell id="Av_qKmk5VdH78iRkDTVT-17" style="edgeStyle=orthogonalEdgeStyle;rounded=0;orthogonalLoop=1;jettySize=auto;html=1;exitX=0.5;exitY=1;exitDx=0;exitDy=0;entryX=0;entryY=0.5;entryDx=0;entryDy=0;" edge="1" parent="1" source="Av_qKmk5VdH78iRkDTVT-1" target="Av_qKmk5VdH78iRkDTVT-16">
          <mxGeometry relative="1" as="geometry" />
        </mxCell>
        <mxCell id="Av_qKmk5VdH78iRkDTVT-1" value="4 o mas escalas" style="rounded=0;whiteSpace=wrap;html=1;" vertex="1" parent="1">
          <mxGeometry x="160" y="90" width="120" height="60" as="geometry" />
        </mxCell>
        <mxCell id="Av_qKmk5VdH78iRkDTVT-20" style="edgeStyle=orthogonalEdgeStyle;rounded=0;orthogonalLoop=1;jettySize=auto;html=1;exitX=0.5;exitY=1;exitDx=0;exitDy=0;entryX=0.5;entryY=0;entryDx=0;entryDy=0;" edge="1" parent="1" source="Av_qKmk5VdH78iRkDTVT-2" target="Av_qKmk5VdH78iRkDTVT-16">
          <mxGeometry relative="1" as="geometry">
            <Array as="points">
              <mxPoint x="740" y="390" />
              <mxPoint x="470" y="390" />
            </Array>
          </mxGeometry>
        </mxCell>
        <mxCell id="Av_qKmk5VdH78iRkDTVT-2" value="Precio mayor a la media general (por trayecto)" style="rounded=0;whiteSpace=wrap;html=1;" vertex="1" parent="1">
          <mxGeometry x="680" y="90" width="120" height="60" as="geometry" />
        </mxCell>
        <mxCell id="Av_qKmk5VdH78iRkDTVT-19" style="edgeStyle=orthogonalEdgeStyle;rounded=0;orthogonalLoop=1;jettySize=auto;html=1;exitX=0.5;exitY=1;exitDx=0;exitDy=0;" edge="1" parent="1" source="Av_qKmk5VdH78iRkDTVT-3">
          <mxGeometry relative="1" as="geometry">
            <mxPoint x="470" y="480" as="targetPoint" />
            <Array as="points">
              <mxPoint x="560" y="390" />
              <mxPoint x="471" y="390" />
            </Array>
          </mxGeometry>
        </mxCell>
        <mxCell id="Av_qKmk5VdH78iRkDTVT-3" value="Distancia mas del doble que directa" style="rounded=0;whiteSpace=wrap;html=1;" vertex="1" parent="1">
          <mxGeometry x="500" y="90" width="120" height="60" as="geometry" />
        </mxCell>
        <mxCell id="Av_qKmk5VdH78iRkDTVT-14" style="edgeStyle=orthogonalEdgeStyle;rounded=0;orthogonalLoop=1;jettySize=auto;html=1;exitX=0.5;exitY=1;exitDx=0;exitDy=0;entryX=0.5;entryY=0;entryDx=0;entryDy=0;" edge="1" parent="1" source="Av_qKmk5VdH78iRkDTVT-4" target="Av_qKmk5VdH78iRkDTVT-13">
          <mxGeometry relative="1" as="geometry" />
        </mxCell>
        <mxCell id="Av_qKmk5VdH78iRkDTVT-4" value="2 mas rapidos para trayectos&amp;nbsp;" style="rounded=0;whiteSpace=wrap;html=1;" vertex="1" parent="1">
          <mxGeometry x="330" y="90" width="120" height="60" as="geometry" />
        </mxCell>
        <mxCell id="Av_qKmk5VdH78iRkDTVT-9" style="edgeStyle=orthogonalEdgeStyle;rounded=0;orthogonalLoop=1;jettySize=auto;html=1;exitX=0.5;exitY=1;exitDx=0;exitDy=0;entryX=0.5;entryY=0;entryDx=0;entryDy=0;" edge="1" parent="1" source="Av_qKmk5VdH78iRkDTVT-8" target="Av_qKmk5VdH78iRkDTVT-1">
          <mxGeometry relative="1" as="geometry" />
        </mxCell>
        <mxCell id="Av_qKmk5VdH78iRkDTVT-10" style="edgeStyle=orthogonalEdgeStyle;rounded=0;orthogonalLoop=1;jettySize=auto;html=1;exitX=0.5;exitY=1;exitDx=0;exitDy=0;entryX=0.5;entryY=0;entryDx=0;entryDy=0;" edge="1" parent="1" source="Av_qKmk5VdH78iRkDTVT-8" target="Av_qKmk5VdH78iRkDTVT-4">
          <mxGeometry relative="1" as="geometry" />
        </mxCell>
        <mxCell id="Av_qKmk5VdH78iRkDTVT-11" style="edgeStyle=orthogonalEdgeStyle;rounded=0;orthogonalLoop=1;jettySize=auto;html=1;exitX=0.5;exitY=1;exitDx=0;exitDy=0;entryX=0.5;entryY=0;entryDx=0;entryDy=0;" edge="1" parent="1" source="Av_qKmk5VdH78iRkDTVT-8" target="Av_qKmk5VdH78iRkDTVT-3">
          <mxGeometry relative="1" as="geometry" />
        </mxCell>
        <mxCell id="Av_qKmk5VdH78iRkDTVT-12" style="edgeStyle=orthogonalEdgeStyle;rounded=0;orthogonalLoop=1;jettySize=auto;html=1;exitX=0.5;exitY=1;exitDx=0;exitDy=0;entryX=0.5;entryY=0;entryDx=0;entryDy=0;" edge="1" parent="1" source="Av_qKmk5VdH78iRkDTVT-8" target="Av_qKmk5VdH78iRkDTVT-2">
          <mxGeometry relative="1" as="geometry" />
        </mxCell>
        <mxCell id="Av_qKmk5VdH78iRkDTVT-8" value="Datos" style="rounded=0;whiteSpace=wrap;html=1;" vertex="1" parent="1">
          <mxGeometry x="390" y="-100" width="120" height="60" as="geometry" />
        </mxCell>
        <mxCell id="Av_qKmk5VdH78iRkDTVT-18" style="edgeStyle=orthogonalEdgeStyle;rounded=0;orthogonalLoop=1;jettySize=auto;html=1;exitX=0.5;exitY=1;exitDx=0;exitDy=0;entryX=0.5;entryY=0;entryDx=0;entryDy=0;" edge="1" parent="1" source="Av_qKmk5VdH78iRkDTVT-13" target="Av_qKmk5VdH78iRkDTVT-16">
          <mxGeometry relative="1" as="geometry">
            <Array as="points">
              <mxPoint x="390" y="390" />
              <mxPoint x="470" y="390" />
            </Array>
          </mxGeometry>
        </mxCell>
        <mxCell id="Av_qKmk5VdH78iRkDTVT-13" value="con 4 o mas escalas" style="rounded=0;whiteSpace=wrap;html=1;" vertex="1" parent="1">
          <mxGeometry x="330" y="250" width="120" height="60" as="geometry" />
        </mxCell>
        <mxCell id="Av_qKmk5VdH78iRkDTVT-16" value="Resultado" style="rounded=0;whiteSpace=wrap;html=1;" vertex="1" parent="1">
          <mxGeometry x="410" y="480" width="120" height="60" as="geometry" />
        </mxCell>
      </root>
    </mxGraphModel>
  </diagram>
  <diagram id="vihMNG-lIPFq3iVxBqbr" name="DiagramaRobustez">
    <mxGraphModel grid="1" page="1" gridSize="10" guides="1" tooltips="1" connect="1" arrows="1" fold="1" pageScale="1" pageWidth="850" pageHeight="1100" math="0" shadow="0">
      <root>
        <mxCell id="0" />
        <mxCell id="1" parent="0" />
        <mxCell id="tgHYlAVjc7Peqk4h9AsL-1" style="edgeStyle=orthogonalEdgeStyle;rounded=0;orthogonalLoop=1;jettySize=auto;html=1;exitX=0.5;exitY=1;exitDx=0;exitDy=0;entryX=0.6;entryY=-0.025;entryDx=0;entryDy=0;entryPerimeter=0;" edge="1" parent="1" target="tgHYlAVjc7Peqk4h9AsL-3">
          <mxGeometry relative="1" as="geometry">
            <mxPoint x="400" as="sourcePoint" />
          </mxGeometry>
        </mxCell>
        <mxCell id="tgHYlAVjc7Peqk4h9AsL-3" value="Boundary Object" style="shape=umlBoundary;whiteSpace=wrap;html=1;" vertex="1" parent="1">
          <mxGeometry x="340" y="110" width="100" height="80" as="geometry" />
        </mxCell>
        <mxCell id="tgHYlAVjc7Peqk4h9AsL-4" style="edgeStyle=orthogonalEdgeStyle;rounded=0;orthogonalLoop=1;jettySize=auto;html=1;exitX=0.643;exitY=0.963;exitDx=0;exitDy=0;exitPerimeter=0;entryX=1;entryY=0.5;entryDx=0;entryDy=0;entryPerimeter=0;" edge="1" parent="1" source="tgHYlAVjc7Peqk4h9AsL-97" target="tgHYlAVjc7Peqk4h9AsL-112">
          <mxGeometry relative="1" as="geometry">
            <mxPoint x="400" y="520" as="sourcePoint" />
            <mxPoint x="400" y="480" as="targetPoint" />
            <Array as="points">
              <mxPoint x="400" y="460" />
              <mxPoint x="130" y="460" />
            </Array>
          </mxGeometry>
        </mxCell>
        <mxCell id="tgHYlAVjc7Peqk4h9AsL-7" style="edgeStyle=orthogonalEdgeStyle;rounded=0;orthogonalLoop=1;jettySize=auto;html=1;entryX=0.5;entryY=0;entryDx=0;entryDy=0;exitX=0;exitY=0.5;exitDx=0;exitDy=0;exitPerimeter=0;" edge="1" parent="1" source="tgHYlAVjc7Peqk4h9AsL-112">
          <mxGeometry relative="1" as="geometry">
            <mxPoint x="130" y="640" as="sourcePoint" />
            <mxPoint x="130" y="720" as="targetPoint" />
          </mxGeometry>
        </mxCell>
        <mxCell id="tgHYlAVjc7Peqk4h9AsL-10" style="edgeStyle=orthogonalEdgeStyle;rounded=0;orthogonalLoop=1;jettySize=auto;html=1;entryX=0.5;entryY=0;entryDx=0;entryDy=0;exitX=0;exitY=0.5;exitDx=0;exitDy=0;exitPerimeter=0;" edge="1" parent="1" source="tgHYlAVjc7Peqk4h9AsL-117">
          <mxGeometry relative="1" as="geometry">
            <mxPoint x="840" y="650" as="sourcePoint" />
            <mxPoint x="840" y="720" as="targetPoint" />
          </mxGeometry>
        </mxCell>
        <mxCell id="tgHYlAVjc7Peqk4h9AsL-78" style="edgeStyle=orthogonalEdgeStyle;rounded=0;orthogonalLoop=1;jettySize=auto;html=1;exitX=0.5;exitY=1;exitDx=0;exitDy=0;exitPerimeter=0;" edge="1" parent="1" source="tgHYlAVjc7Peqk4h9AsL-119">
          <mxGeometry relative="1" as="geometry">
            <mxPoint x="1180" y="720" as="targetPoint" />
            <mxPoint x="1180" y="630" as="sourcePoint" />
          </mxGeometry>
        </mxCell>
        <mxCell id="tgHYlAVjc7Peqk4h9AsL-12" style="edgeStyle=orthogonalEdgeStyle;rounded=0;orthogonalLoop=1;jettySize=auto;html=1;exitX=1;exitY=0.5;exitDx=0;exitDy=0;entryX=0.5;entryY=0;entryDx=0;entryDy=0;entryPerimeter=0;" edge="1" parent="1" target="tgHYlAVjc7Peqk4h9AsL-121">
          <mxGeometry relative="1" as="geometry">
            <mxPoint x="170" y="760" as="sourcePoint" />
            <mxPoint x="215" y="760" as="targetPoint" />
          </mxGeometry>
        </mxCell>
        <mxCell id="tgHYlAVjc7Peqk4h9AsL-72" style="edgeStyle=orthogonalEdgeStyle;rounded=0;orthogonalLoop=1;jettySize=auto;html=1;exitX=1;exitY=0.5;exitDx=0;exitDy=0;entryX=0;entryY=0.5;entryDx=0;entryDy=0;entryPerimeter=0;startArrow=classic;startFill=1;endArrow=none;endFill=0;" edge="1" parent="1" target="tgHYlAVjc7Peqk4h9AsL-73">
          <mxGeometry relative="1" as="geometry">
            <mxPoint x="680" y="760" as="targetPoint" />
            <mxPoint x="650" y="760" as="sourcePoint" />
          </mxGeometry>
        </mxCell>
        <mxCell id="tgHYlAVjc7Peqk4h9AsL-17" style="edgeStyle=orthogonalEdgeStyle;rounded=0;orthogonalLoop=1;jettySize=auto;html=1;exitX=1;exitY=0.5;exitDx=0;exitDy=0;entryX=0;entryY=0.5;entryDx=0;entryDy=0;entryPerimeter=0;startArrow=classic;startFill=1;endArrow=classic;endFill=1;" edge="1" parent="1" target="tgHYlAVjc7Peqk4h9AsL-48">
          <mxGeometry relative="1" as="geometry">
            <mxPoint x="880" y="760" as="sourcePoint" />
          </mxGeometry>
        </mxCell>
        <mxCell id="tgHYlAVjc7Peqk4h9AsL-20" value="Filtro mas del doble que directo" style="text;html=1;align=center;verticalAlign=middle;resizable=0;points=[];autosize=1;strokeColor=none;fillColor=none;" vertex="1" parent="1">
          <mxGeometry x="515" y="808" width="190" height="30" as="geometry" />
        </mxCell>
        <mxCell id="tgHYlAVjc7Peqk4h9AsL-21" value="Agregador por trayecto" style="text;html=1;align=center;verticalAlign=middle;resizable=0;points=[];autosize=1;strokeColor=none;fillColor=none;" vertex="1" parent="1">
          <mxGeometry x="765" y="808" width="140" height="30" as="geometry" />
        </mxCell>
        <mxCell id="tgHYlAVjc7Peqk4h9AsL-84" style="edgeStyle=orthogonalEdgeStyle;rounded=0;orthogonalLoop=1;jettySize=auto;html=1;exitX=0.657;exitY=0.988;exitDx=0;exitDy=0;exitPerimeter=0;entryX=1;entryY=0.5;entryDx=0;entryDy=0;entryPerimeter=0;" edge="1" parent="1" source="tgHYlAVjc7Peqk4h9AsL-97" target="tgHYlAVjc7Peqk4h9AsL-58">
          <mxGeometry relative="1" as="geometry">
            <mxPoint x="830" y="800" as="sourcePoint" />
            <mxPoint x="833" y="870" as="targetPoint" />
            <Array as="points">
              <mxPoint x="401" y="460" />
              <mxPoint x="1410" y="460" />
            </Array>
          </mxGeometry>
        </mxCell>
        <mxCell id="tgHYlAVjc7Peqk4h9AsL-32" value="Parser" style="text;html=1;align=center;verticalAlign=middle;resizable=0;points=[];autosize=1;strokeColor=none;fillColor=none;" vertex="1" parent="1">
          <mxGeometry x="460" y="325" width="60" height="30" as="geometry" />
        </mxCell>
        <mxCell id="tgHYlAVjc7Peqk4h9AsL-69" style="edgeStyle=orthogonalEdgeStyle;rounded=0;orthogonalLoop=1;jettySize=auto;html=1;exitX=0.5;exitY=1;exitDx=0;exitDy=0;exitPerimeter=0;entryX=0;entryY=0.5;entryDx=0;entryDy=0;" edge="1" parent="1">
          <mxGeometry relative="1" as="geometry">
            <mxPoint x="295" y="868" as="sourcePoint" />
            <mxPoint x="350" y="868" as="targetPoint" />
          </mxGeometry>
        </mxCell>
        <mxCell id="tgHYlAVjc7Peqk4h9AsL-48" value="Precios por trayecto" style="shape=note;whiteSpace=wrap;html=1;backgroundOutline=1;darkOpacity=0.05;size=9;" vertex="1" parent="1">
          <mxGeometry x="980" y="725" width="60" height="70" as="geometry" />
        </mxCell>
        <mxCell id="tgHYlAVjc7Peqk4h9AsL-49" value="Agregador resultados" style="text;html=1;align=center;verticalAlign=middle;resizable=0;points=[];autosize=1;strokeColor=none;fillColor=none;" vertex="1" parent="1">
          <mxGeometry x="190" y="325" width="140" height="30" as="geometry" />
        </mxCell>
        <mxCell id="tgHYlAVjc7Peqk4h9AsL-58" value="" style="shape=cylinder3;whiteSpace=wrap;html=1;boundedLbl=1;backgroundOutline=1;size=15;rotation=-90;" vertex="1" parent="1">
          <mxGeometry x="1380" y="540" width="60" height="80" as="geometry" />
        </mxCell>
        <mxCell id="tgHYlAVjc7Peqk4h9AsL-59" value="Cola" style="text;html=1;align=center;verticalAlign=middle;resizable=0;points=[];autosize=1;strokeColor=none;fillColor=none;" vertex="1" parent="1">
          <mxGeometry x="1390" y="565" width="50" height="30" as="geometry" />
        </mxCell>
        <mxCell id="tgHYlAVjc7Peqk4h9AsL-61" value="Calculador promedio final y maximo" style="text;html=1;align=center;verticalAlign=middle;resizable=0;points=[];autosize=1;strokeColor=none;fillColor=none;" vertex="1" parent="1">
          <mxGeometry x="750" y="1090" width="210" height="30" as="geometry" />
        </mxCell>
        <mxCell id="KQBHp2sGtYCPplzfa_Z2-1" style="edgeStyle=orthogonalEdgeStyle;rounded=0;orthogonalLoop=1;jettySize=auto;html=1;exitX=1;exitY=0.5;exitDx=0;exitDy=0;exitPerimeter=0;entryX=-0.043;entryY=0.588;entryDx=0;entryDy=0;entryPerimeter=0;" edge="1" parent="1" source="tgHYlAVjc7Peqk4h9AsL-62" target="tgHYlAVjc7Peqk4h9AsL-95">
          <mxGeometry relative="1" as="geometry">
            <Array as="points">
              <mxPoint x="-250" y="340" />
            </Array>
          </mxGeometry>
        </mxCell>
        <mxCell id="tgHYlAVjc7Peqk4h9AsL-62" value="" style="shape=cylinder3;whiteSpace=wrap;html=1;boundedLbl=1;backgroundOutline=1;size=15;rotation=-90;" vertex="1" parent="1">
          <mxGeometry x="-280" y="540" width="60" height="80" as="geometry" />
        </mxCell>
        <mxCell id="tgHYlAVjc7Peqk4h9AsL-64" style="edgeStyle=orthogonalEdgeStyle;rounded=0;orthogonalLoop=1;jettySize=auto;html=1;exitX=1.029;exitY=0.588;exitDx=0;exitDy=0;startArrow=classic;startFill=1;endArrow=classic;endFill=1;exitPerimeter=0;" edge="1" parent="1" source="pZK8rin384X-fQ7fw4jk-1" target="tgHYlAVjc7Peqk4h9AsL-68">
          <mxGeometry relative="1" as="geometry">
            <mxPoint x="470" y="901" as="targetPoint" />
            <mxPoint x="440" y="901" as="sourcePoint" />
          </mxGeometry>
        </mxCell>
        <mxCell id="tgHYlAVjc7Peqk4h9AsL-66" value="FIltro segun escalas" style="text;html=1;align=center;verticalAlign=middle;resizable=0;points=[];autosize=1;strokeColor=none;fillColor=none;" vertex="1" parent="1">
          <mxGeometry x="330" y="778" width="130" height="30" as="geometry" />
        </mxCell>
        <mxCell id="tgHYlAVjc7Peqk4h9AsL-68" value="2 mas rapidos actuales" style="shape=note;whiteSpace=wrap;html=1;backgroundOutline=1;darkOpacity=0.05;size=20;" vertex="1" parent="1">
          <mxGeometry x="490" y="621" width="65" height="70" as="geometry" />
        </mxCell>
        <mxCell id="tgHYlAVjc7Peqk4h9AsL-70" value="Filtro por cantidad de escalas" style="text;html=1;align=center;verticalAlign=middle;resizable=0;points=[];autosize=1;strokeColor=none;fillColor=none;" vertex="1" parent="1">
          <mxGeometry x="-90" y="738" width="180" height="30" as="geometry" />
        </mxCell>
        <mxCell id="tgHYlAVjc7Peqk4h9AsL-71" value="Cliente" style="shape=umlActor;verticalLabelPosition=bottom;verticalAlign=top;html=1;outlineConnect=0;" vertex="1" parent="1">
          <mxGeometry x="385" y="-80" width="30" height="60" as="geometry" />
        </mxCell>
        <mxCell id="tgHYlAVjc7Peqk4h9AsL-73" value="Coordenadas aeropuertos" style="shape=note;whiteSpace=wrap;html=1;backgroundOutline=1;darkOpacity=0.05;size=11;" vertex="1" parent="1">
          <mxGeometry x="695" y="730" width="75" height="60" as="geometry" />
        </mxCell>
        <mxCell id="tgHYlAVjc7Peqk4h9AsL-74" value="InformacionVuelo" style="text;html=1;align=center;verticalAlign=middle;resizable=0;points=[];autosize=1;strokeColor=none;fillColor=none;" vertex="1" parent="1">
          <mxGeometry x="400" y="38" width="120" height="30" as="geometry" />
        </mxCell>
        <mxCell id="tgHYlAVjc7Peqk4h9AsL-75" value="InformacionVuelo" style="text;html=1;align=center;verticalAlign=middle;resizable=0;points=[];autosize=1;strokeColor=none;fillColor=none;" vertex="1" parent="1">
          <mxGeometry x="410" y="250" width="120" height="30" as="geometry" />
        </mxCell>
        <mxCell id="tgHYlAVjc7Peqk4h9AsL-76" value="InfoVueloReducida" style="text;html=1;align=center;verticalAlign=middle;resizable=0;points=[];autosize=1;strokeColor=none;fillColor=none;" vertex="1" parent="1">
          <mxGeometry x="420" y="388" width="120" height="30" as="geometry" />
        </mxCell>
        <mxCell id="tgHYlAVjc7Peqk4h9AsL-82" value="Promedio total" style="shape=note;whiteSpace=wrap;html=1;backgroundOutline=1;darkOpacity=0.05;size=9;" vertex="1" parent="1">
          <mxGeometry x="1150" y="838" width="60" height="70" as="geometry" />
        </mxCell>
        <mxCell id="tgHYlAVjc7Peqk4h9AsL-88" style="edgeStyle=orthogonalEdgeStyle;rounded=0;orthogonalLoop=1;jettySize=auto;html=1;exitX=0.5;exitY=0;exitDx=0;exitDy=0;exitPerimeter=0;entryX=1;entryY=0.5;entryDx=0;entryDy=0;" edge="1" parent="1">
          <mxGeometry relative="1" as="geometry">
            <mxPoint x="1460" y="700" as="targetPoint" />
            <mxPoint x="1570" y="700" as="sourcePoint" />
          </mxGeometry>
        </mxCell>
        <mxCell id="tgHYlAVjc7Peqk4h9AsL-90" value="Promedio total" style="shape=note;whiteSpace=wrap;html=1;backgroundOutline=1;darkOpacity=0.05;size=9;" vertex="1" parent="1">
          <mxGeometry x="1570" y="668" width="60" height="70" as="geometry" />
        </mxCell>
        <mxCell id="tgHYlAVjc7Peqk4h9AsL-94" value="Worker" style="ellipse;shape=umlControl;whiteSpace=wrap;html=1;" vertex="1" parent="1">
          <mxGeometry x="120" y="293" width="70" height="80" as="geometry" />
        </mxCell>
        <mxCell id="tgHYlAVjc7Peqk4h9AsL-95" value="Worker" style="ellipse;shape=umlControl;whiteSpace=wrap;html=1;" vertex="1" parent="1">
          <mxGeometry x="100" y="293" width="70" height="80" as="geometry" />
        </mxCell>
        <mxCell id="tgHYlAVjc7Peqk4h9AsL-96" value="Worker" style="ellipse;shape=umlControl;whiteSpace=wrap;html=1;" vertex="1" parent="1">
          <mxGeometry x="375" y="293" width="70" height="80" as="geometry" />
        </mxCell>
        <mxCell id="tgHYlAVjc7Peqk4h9AsL-97" value="Worker" style="ellipse;shape=umlControl;whiteSpace=wrap;html=1;" vertex="1" parent="1">
          <mxGeometry x="355" y="293" width="70" height="80" as="geometry" />
        </mxCell>
        <mxCell id="tgHYlAVjc7Peqk4h9AsL-98" value="Worker" style="ellipse;shape=umlControl;whiteSpace=wrap;html=1;" vertex="1" parent="1">
          <mxGeometry x="100" y="715" width="70" height="80" as="geometry" />
        </mxCell>
        <mxCell id="tgHYlAVjc7Peqk4h9AsL-99" value="Worker" style="ellipse;shape=umlControl;whiteSpace=wrap;html=1;" vertex="1" parent="1">
          <mxGeometry x="80" y="715" width="70" height="80" as="geometry" />
        </mxCell>
        <mxCell id="tgHYlAVjc7Peqk4h9AsL-100" value="Worker" style="ellipse;shape=umlControl;whiteSpace=wrap;html=1;" vertex="1" parent="1">
          <mxGeometry x="370" y="820" width="70" height="80" as="geometry" />
        </mxCell>
        <mxCell id="tgHYlAVjc7Peqk4h9AsL-101" value="Worker" style="ellipse;shape=umlControl;whiteSpace=wrap;html=1;" vertex="1" parent="1">
          <mxGeometry x="350" y="820" width="70" height="80" as="geometry" />
        </mxCell>
        <mxCell id="tgHYlAVjc7Peqk4h9AsL-102" value="Worker" style="ellipse;shape=umlControl;whiteSpace=wrap;html=1;" vertex="1" parent="1">
          <mxGeometry x="585" y="710" width="70" height="80" as="geometry" />
        </mxCell>
        <mxCell id="tgHYlAVjc7Peqk4h9AsL-103" value="Worker" style="ellipse;shape=umlControl;whiteSpace=wrap;html=1;" vertex="1" parent="1">
          <mxGeometry x="565" y="710" width="70" height="80" as="geometry" />
        </mxCell>
        <mxCell id="tgHYlAVjc7Peqk4h9AsL-104" value="Worker" style="ellipse;shape=umlControl;whiteSpace=wrap;html=1;" vertex="1" parent="1">
          <mxGeometry x="810" y="713" width="70" height="80" as="geometry" />
        </mxCell>
        <mxCell id="tgHYlAVjc7Peqk4h9AsL-105" value="Worker" style="ellipse;shape=umlControl;whiteSpace=wrap;html=1;" vertex="1" parent="1">
          <mxGeometry x="790" y="713" width="70" height="80" as="geometry" />
        </mxCell>
        <mxCell id="tgHYlAVjc7Peqk4h9AsL-106" value="Worker" style="ellipse;shape=umlControl;whiteSpace=wrap;html=1;" vertex="1" parent="1">
          <mxGeometry x="1145" y="715" width="70" height="80" as="geometry" />
        </mxCell>
        <mxCell id="tgHYlAVjc7Peqk4h9AsL-108" value="Worker" style="ellipse;shape=umlControl;whiteSpace=wrap;html=1;" vertex="1" parent="1">
          <mxGeometry x="1390" y="660" width="70" height="80" as="geometry" />
        </mxCell>
        <mxCell id="tgHYlAVjc7Peqk4h9AsL-109" value="Worker" style="ellipse;shape=umlControl;whiteSpace=wrap;html=1;" vertex="1" parent="1">
          <mxGeometry x="1370" y="660" width="70" height="80" as="geometry" />
        </mxCell>
        <mxCell id="tgHYlAVjc7Peqk4h9AsL-112" value="" style="shape=cylinder3;whiteSpace=wrap;html=1;boundedLbl=1;backgroundOutline=1;size=15;rotation=-90;" vertex="1" parent="1">
          <mxGeometry x="100" y="540" width="60" height="80" as="geometry" />
        </mxCell>
        <mxCell id="tgHYlAVjc7Peqk4h9AsL-113" value="Cola" style="text;html=1;align=center;verticalAlign=middle;resizable=0;points=[];autosize=1;strokeColor=none;fillColor=none;" vertex="1" parent="1">
          <mxGeometry x="110" y="565" width="50" height="30" as="geometry" />
        </mxCell>
        <mxCell id="tgHYlAVjc7Peqk4h9AsL-116" style="edgeStyle=orthogonalEdgeStyle;rounded=0;orthogonalLoop=1;jettySize=auto;html=1;exitX=0;exitY=0.5;exitDx=0;exitDy=0;exitPerimeter=0;entryX=0.571;entryY=0.038;entryDx=0;entryDy=0;entryPerimeter=0;" edge="1" parent="1" source="tgHYlAVjc7Peqk4h9AsL-114" target="tgHYlAVjc7Peqk4h9AsL-103">
          <mxGeometry relative="1" as="geometry" />
        </mxCell>
        <mxCell id="tgHYlAVjc7Peqk4h9AsL-114" value="" style="shape=cylinder3;whiteSpace=wrap;html=1;boundedLbl=1;backgroundOutline=1;size=15;rotation=-90;" vertex="1" parent="1">
          <mxGeometry x="575" y="540" width="60" height="80" as="geometry" />
        </mxCell>
        <mxCell id="tgHYlAVjc7Peqk4h9AsL-115" value="Cola" style="text;html=1;align=center;verticalAlign=middle;resizable=0;points=[];autosize=1;strokeColor=none;fillColor=none;" vertex="1" parent="1">
          <mxGeometry x="585" y="565" width="50" height="30" as="geometry" />
        </mxCell>
        <mxCell id="tgHYlAVjc7Peqk4h9AsL-117" value="" style="shape=cylinder3;whiteSpace=wrap;html=1;boundedLbl=1;backgroundOutline=1;size=15;rotation=-90;" vertex="1" parent="1">
          <mxGeometry x="810" y="540" width="60" height="80" as="geometry" />
        </mxCell>
        <mxCell id="tgHYlAVjc7Peqk4h9AsL-118" value="Cola" style="text;html=1;align=center;verticalAlign=middle;resizable=0;points=[];autosize=1;strokeColor=none;fillColor=none;" vertex="1" parent="1">
          <mxGeometry x="820" y="565" width="50" height="30" as="geometry" />
        </mxCell>
        <mxCell id="tgHYlAVjc7Peqk4h9AsL-119" value="" style="shape=cylinder3;whiteSpace=wrap;html=1;boundedLbl=1;backgroundOutline=1;size=15;rotation=-90;" vertex="1" parent="1">
          <mxGeometry x="980" y="580" width="60" height="80" as="geometry" />
        </mxCell>
        <mxCell id="tgHYlAVjc7Peqk4h9AsL-120" value="Cola" style="text;html=1;align=center;verticalAlign=middle;resizable=0;points=[];autosize=1;strokeColor=none;fillColor=none;" vertex="1" parent="1">
          <mxGeometry x="990" y="605" width="50" height="30" as="geometry" />
        </mxCell>
        <mxCell id="tgHYlAVjc7Peqk4h9AsL-121" value="" style="shape=cylinder3;whiteSpace=wrap;html=1;boundedLbl=1;backgroundOutline=1;size=15;rotation=-90;" vertex="1" parent="1">
          <mxGeometry x="230" y="828" width="60" height="80" as="geometry" />
        </mxCell>
        <mxCell id="tgHYlAVjc7Peqk4h9AsL-122" value="Cola" style="text;html=1;align=center;verticalAlign=middle;resizable=0;points=[];autosize=1;strokeColor=none;fillColor=none;" vertex="1" parent="1">
          <mxGeometry x="240" y="853" width="50" height="30" as="geometry" />
        </mxCell>
        <mxCell id="tgHYlAVjc7Peqk4h9AsL-125" value="" style="endArrow=classic;html=1;rounded=0;entryX=1;entryY=0.5;entryDx=0;entryDy=0;entryPerimeter=0;exitX=0.643;exitY=0.963;exitDx=0;exitDy=0;exitPerimeter=0;" edge="1" parent="1" source="tgHYlAVjc7Peqk4h9AsL-97" target="tgHYlAVjc7Peqk4h9AsL-114">
          <mxGeometry width="50" height="50" relative="1" as="geometry">
            <mxPoint x="420" y="640" as="sourcePoint" />
            <mxPoint x="470" y="590" as="targetPoint" />
            <Array as="points">
              <mxPoint x="400" y="460" />
              <mxPoint x="605" y="460" />
            </Array>
          </mxGeometry>
        </mxCell>
        <mxCell id="tgHYlAVjc7Peqk4h9AsL-126" value="" style="endArrow=classic;html=1;rounded=0;entryX=1;entryY=0.5;entryDx=0;entryDy=0;entryPerimeter=0;" edge="1" parent="1" target="tgHYlAVjc7Peqk4h9AsL-117">
          <mxGeometry width="50" height="50" relative="1" as="geometry">
            <mxPoint x="400" y="370" as="sourcePoint" />
            <mxPoint x="470" y="530" as="targetPoint" />
            <Array as="points">
              <mxPoint x="400" y="460" />
              <mxPoint x="840" y="460" />
            </Array>
          </mxGeometry>
        </mxCell>
        <mxCell id="tgHYlAVjc7Peqk4h9AsL-128" value="Cola" style="text;html=1;align=center;verticalAlign=middle;resizable=0;points=[];autosize=1;strokeColor=none;fillColor=none;" vertex="1" parent="1">
          <mxGeometry x="-270" y="565" width="50" height="30" as="geometry" />
        </mxCell>
        <mxCell id="KQBHp2sGtYCPplzfa_Z2-2" value="" style="endArrow=classic;html=1;rounded=0;entryX=0;entryY=0.5;entryDx=0;entryDy=0;entryPerimeter=0;exitX=0.3;exitY=0.988;exitDx=0;exitDy=0;exitPerimeter=0;" edge="1" parent="1" source="tgHYlAVjc7Peqk4h9AsL-98" target="tgHYlAVjc7Peqk4h9AsL-62">
          <mxGeometry width="50" height="50" relative="1" as="geometry">
            <mxPoint x="350" y="860" as="sourcePoint" />
            <mxPoint x="400" y="810" as="targetPoint" />
            <Array as="points">
              <mxPoint x="121" y="1050" />
              <mxPoint x="-250" y="1050" />
            </Array>
          </mxGeometry>
        </mxCell>
        <mxCell id="KQBHp2sGtYCPplzfa_Z2-3" value="" style="endArrow=classic;html=1;rounded=0;entryX=0;entryY=0.5;entryDx=0;entryDy=0;entryPerimeter=0;exitX=0.629;exitY=1.013;exitDx=0;exitDy=0;exitPerimeter=0;" edge="1" parent="1" source="tgHYlAVjc7Peqk4h9AsL-101" target="tgHYlAVjc7Peqk4h9AsL-62">
          <mxGeometry width="50" height="50" relative="1" as="geometry">
            <mxPoint x="350" y="910" as="sourcePoint" />
            <mxPoint x="400" y="860" as="targetPoint" />
            <Array as="points">
              <mxPoint x="394" y="1050" />
              <mxPoint x="-250" y="1050" />
            </Array>
          </mxGeometry>
        </mxCell>
        <mxCell id="KQBHp2sGtYCPplzfa_Z2-4" value="" style="endArrow=classic;html=1;rounded=0;entryX=0;entryY=0.5;entryDx=0;entryDy=0;entryPerimeter=0;exitX=0.629;exitY=1.038;exitDx=0;exitDy=0;exitPerimeter=0;" edge="1" parent="1" source="tgHYlAVjc7Peqk4h9AsL-103" target="tgHYlAVjc7Peqk4h9AsL-62">
          <mxGeometry width="50" height="50" relative="1" as="geometry">
            <mxPoint x="350" y="800" as="sourcePoint" />
            <mxPoint x="400" y="750" as="targetPoint" />
            <Array as="points">
              <mxPoint x="609" y="1050" />
              <mxPoint x="-250" y="1050" />
            </Array>
          </mxGeometry>
        </mxCell>
        <mxCell id="KQBHp2sGtYCPplzfa_Z2-5" value="" style="endArrow=classic;html=1;rounded=0;entryX=0;entryY=0.5;entryDx=0;entryDy=0;entryPerimeter=0;exitX=0.614;exitY=1.013;exitDx=0;exitDy=0;exitPerimeter=0;" edge="1" parent="1" source="tgHYlAVjc7Peqk4h9AsL-109" target="tgHYlAVjc7Peqk4h9AsL-62">
          <mxGeometry width="50" height="50" relative="1" as="geometry">
            <mxPoint x="350" y="830" as="sourcePoint" />
            <mxPoint x="400" y="780" as="targetPoint" />
            <Array as="points">
              <mxPoint x="1413" y="1050" />
              <mxPoint x="590" y="1050" />
              <mxPoint x="-250" y="1050" />
            </Array>
          </mxGeometry>
        </mxCell>
        <mxCell id="KQBHp2sGtYCPplzfa_Z2-6" value="" style="endArrow=classic;html=1;rounded=0;exitX=0.371;exitY=0.1;exitDx=0;exitDy=0;exitPerimeter=0;" edge="1" parent="1" source="tgHYlAVjc7Peqk4h9AsL-94">
          <mxGeometry width="50" height="50" relative="1" as="geometry">
            <mxPoint x="350" y="200" as="sourcePoint" />
            <mxPoint x="400" y="200" as="targetPoint" />
            <Array as="points">
              <mxPoint x="146" y="240" />
              <mxPoint x="400" y="240" />
            </Array>
          </mxGeometry>
        </mxCell>
        <mxCell id="KQBHp2sGtYCPplzfa_Z2-7" value="" style="endArrow=classic;html=1;rounded=0;entryX=0.643;entryY=0.038;entryDx=0;entryDy=0;entryPerimeter=0;" edge="1" parent="1" target="tgHYlAVjc7Peqk4h9AsL-97">
          <mxGeometry width="50" height="50" relative="1" as="geometry">
            <mxPoint x="400" y="200" as="sourcePoint" />
            <mxPoint x="400" y="340" as="targetPoint" />
          </mxGeometry>
        </mxCell>
        <mxCell id="KQBHp2sGtYCPplzfa_Z2-8" value="Resaultados Queries" style="text;html=1;align=center;verticalAlign=middle;resizable=0;points=[];autosize=1;strokeColor=none;fillColor=none;" vertex="1" parent="1">
          <mxGeometry x="195" y="200" width="140" height="30" as="geometry" />
        </mxCell>
        <mxCell id="KQBHp2sGtYCPplzfa_Z2-9" value="Resaultados Queries" style="text;html=1;align=center;verticalAlign=middle;resizable=0;points=[];autosize=1;strokeColor=none;fillColor=none;" vertex="1" parent="1">
          <mxGeometry x="-160" y="300" width="140" height="30" as="geometry" />
        </mxCell>
        <mxCell id="pZK8rin384X-fQ7fw4jk-1" value="Worker" style="ellipse;shape=umlControl;whiteSpace=wrap;html=1;" vertex="1" parent="1">
          <mxGeometry x="370" y="681" width="70" height="80" as="geometry" />
        </mxCell>
        <mxCell id="pZK8rin384X-fQ7fw4jk-2" value="Worker" style="ellipse;shape=umlControl;whiteSpace=wrap;html=1;" vertex="1" parent="1">
          <mxGeometry x="350" y="681" width="70" height="80" as="geometry" />
        </mxCell>
        <mxCell id="pZK8rin384X-fQ7fw4jk-3" value="Filtro dos mas rapidos" style="text;html=1;align=center;verticalAlign=middle;resizable=0;points=[];autosize=1;strokeColor=none;fillColor=none;" vertex="1" parent="1">
          <mxGeometry x="210" y="713" width="140" height="30" as="geometry" />
        </mxCell>
        <mxCell id="pZK8rin384X-fQ7fw4jk-4" value="" style="endArrow=classic;html=1;rounded=0;exitX=0.686;exitY=1.025;exitDx=0;exitDy=0;exitPerimeter=0;entryX=0.386;entryY=0.05;entryDx=0;entryDy=0;entryPerimeter=0;" edge="1" parent="1" source="pZK8rin384X-fQ7fw4jk-2" target="tgHYlAVjc7Peqk4h9AsL-100">
          <mxGeometry width="50" height="50" relative="1" as="geometry">
            <mxPoint x="400" y="730" as="sourcePoint" />
            <mxPoint x="450" y="680" as="targetPoint" />
          </mxGeometry>
        </mxCell>
        <mxCell id="pZK8rin384X-fQ7fw4jk-5" value="" style="endArrow=classic;html=1;rounded=0;" edge="1" parent="1">
          <mxGeometry width="50" height="50" relative="1" as="geometry">
            <mxPoint x="398" y="370" as="sourcePoint" />
            <mxPoint x="398" y="540" as="targetPoint" />
          </mxGeometry>
        </mxCell>
        <mxCell id="pZK8rin384X-fQ7fw4jk-6" value="" style="endArrow=classic;html=1;rounded=0;exitX=1.057;exitY=0.525;exitDx=0;exitDy=0;exitPerimeter=0;entryX=0.5;entryY=0;entryDx=0;entryDy=0;entryPerimeter=0;" edge="1" parent="1" source="tgHYlAVjc7Peqk4h9AsL-104" target="tgHYlAVjc7Peqk4h9AsL-119">
          <mxGeometry width="50" height="50" relative="1" as="geometry">
            <mxPoint x="840" y="790" as="sourcePoint" />
            <mxPoint x="890" y="740" as="targetPoint" />
            <Array as="points">
              <mxPoint x="884" y="620" />
            </Array>
          </mxGeometry>
        </mxCell>
        <mxCell id="pZK8rin384X-fQ7fw4jk-7" value="Calculador promedio total" style="text;html=1;align=center;verticalAlign=middle;resizable=0;points=[];autosize=1;strokeColor=none;fillColor=none;" vertex="1" parent="1">
          <mxGeometry x="1010" y="680" width="160" height="30" as="geometry" />
        </mxCell>
        <mxCell id="pHoaomacxsawrdnlA81M-1" value="" style="endArrow=classic;html=1;rounded=0;exitX=0;exitY=0.5;exitDx=0;exitDy=0;exitPerimeter=0;" edge="1" parent="1" source="tgHYlAVjc7Peqk4h9AsL-58">
          <mxGeometry width="50" height="50" relative="1" as="geometry">
            <mxPoint x="1385" y="685" as="sourcePoint" />
            <mxPoint x="1410" y="670" as="targetPoint" />
          </mxGeometry>
        </mxCell>
        <mxCell id="pHoaomacxsawrdnlA81M-3" value="" style="endArrow=classic;html=1;rounded=0;entryX=0.5;entryY=0;entryDx=0;entryDy=0;entryPerimeter=0;startArrow=classic;startFill=1;" edge="1" parent="1" target="tgHYlAVjc7Peqk4h9AsL-82">
          <mxGeometry width="50" height="50" relative="1" as="geometry">
            <mxPoint x="1180" y="800" as="sourcePoint" />
            <mxPoint x="730" y="810" as="targetPoint" />
          </mxGeometry>
        </mxCell>
        <mxCell id="pHoaomacxsawrdnlA81M-5" value="" style="shape=cylinder3;whiteSpace=wrap;html=1;boundedLbl=1;backgroundOutline=1;size=15;rotation=-90;" vertex="1" parent="1">
          <mxGeometry x="1260" y="588" width="60" height="80" as="geometry" />
        </mxCell>
        <mxCell id="pHoaomacxsawrdnlA81M-6" value="Cola" style="text;html=1;align=center;verticalAlign=middle;resizable=0;points=[];autosize=1;strokeColor=none;fillColor=none;" vertex="1" parent="1">
          <mxGeometry x="1270" y="613" width="50" height="30" as="geometry" />
        </mxCell>
        <mxCell id="pHoaomacxsawrdnlA81M-7" value="" style="endArrow=classic;html=1;rounded=0;entryX=0.5;entryY=0;entryDx=0;entryDy=0;entryPerimeter=0;exitX=1;exitY=0.563;exitDx=0;exitDy=0;exitPerimeter=0;" edge="1" parent="1" source="tgHYlAVjc7Peqk4h9AsL-106" target="pHoaomacxsawrdnlA81M-5">
          <mxGeometry width="50" height="50" relative="1" as="geometry">
            <mxPoint x="680" y="860" as="sourcePoint" />
            <mxPoint x="730" y="810" as="targetPoint" />
            <Array as="points">
              <mxPoint x="1230" y="760" />
              <mxPoint x="1230" y="630" />
            </Array>
          </mxGeometry>
        </mxCell>
        <mxCell id="pHoaomacxsawrdnlA81M-8" style="edgeStyle=orthogonalEdgeStyle;rounded=0;orthogonalLoop=1;jettySize=auto;html=1;exitX=0.5;exitY=1;exitDx=0;exitDy=0;exitPerimeter=0;entryX=-0.057;entryY=0.65;entryDx=0;entryDy=0;entryPerimeter=0;" edge="1" parent="1" source="pHoaomacxsawrdnlA81M-5" target="tgHYlAVjc7Peqk4h9AsL-109">
          <mxGeometry relative="1" as="geometry">
            <Array as="points">
              <mxPoint x="1340" y="628" />
              <mxPoint x="1340" y="712" />
            </Array>
          </mxGeometry>
        </mxCell>
        <mxCell id="pHoaomacxsawrdnlA81M-9" value="" style="shape=cylinder3;whiteSpace=wrap;html=1;boundedLbl=1;backgroundOutline=1;size=15;rotation=-90;" vertex="1" parent="1">
          <mxGeometry x="370" y="533" width="60" height="80" as="geometry" />
        </mxCell>
        <mxCell id="pHoaomacxsawrdnlA81M-10" value="Cola" style="text;html=1;align=center;verticalAlign=middle;resizable=0;points=[];autosize=1;strokeColor=none;fillColor=none;" vertex="1" parent="1">
          <mxGeometry x="380" y="558" width="50" height="30" as="geometry" />
        </mxCell>
        <mxCell id="pHoaomacxsawrdnlA81M-11" style="edgeStyle=orthogonalEdgeStyle;rounded=0;orthogonalLoop=1;jettySize=auto;html=1;exitX=0;exitY=0.5;exitDx=0;exitDy=0;exitPerimeter=0;entryX=0.429;entryY=0.075;entryDx=0;entryDy=0;entryPerimeter=0;" edge="1" parent="1" source="pHoaomacxsawrdnlA81M-9" target="pZK8rin384X-fQ7fw4jk-1">
          <mxGeometry relative="1" as="geometry" />
        </mxCell>
      </root>
    </mxGraphModel>
  </diagram>
  <diagram id="lLsqf-L1oh-no75bK6xV" name="DiagramaDespliegue">
    <mxGraphModel grid="1" page="1" gridSize="10" guides="1" tooltips="1" connect="1" arrows="1" fold="1" pageScale="1" pageWidth="827" pageHeight="1169" math="0" shadow="0">
      <root>
        <mxCell id="0" />
        <mxCell id="1" parent="0" />
        <object placeholders="1" c4Name="Interfaz Entrada" c4Type="ContainerScopeBoundary" c4Application="Container" label="&lt;font style=&quot;font-size: 16px&quot;&gt;&lt;b&gt;&lt;div style=&quot;text-align: left&quot;&gt;%c4Name%&lt;/div&gt;&lt;/b&gt;&lt;/font&gt;&lt;div style=&quot;text-align: left&quot;&gt;[%c4Application%]&lt;/div&gt;" id="0UKaycL4rT2quDGroTpY-1">
          <mxCell style="rounded=1;fontSize=11;whiteSpace=wrap;html=1;dashed=1;arcSize=20;fillColor=none;strokeColor=#666666;fontColor=#333333;labelBackgroundColor=none;align=left;verticalAlign=bottom;labelBorderColor=none;spacingTop=0;spacing=10;dashPattern=8 4;metaEdit=1;rotatable=0;perimeter=rectanglePerimeter;noLabel=0;labelPadding=0;allowArrows=0;connectable=0;expand=0;recursiveResize=0;editable=1;pointerEvents=0;absoluteArcSize=1;points=[[0.25,0,0],[0.5,0,0],[0.75,0,0],[1,0.25,0],[1,0.5,0],[1,0.75,0],[0.75,1,0],[0.5,1,0],[0.25,1,0],[0,0.75,0],[0,0.5,0],[0,0.25,0]];" vertex="1" parent="1">
            <mxGeometry x="280" y="220" width="450" height="190" as="geometry" />
          </mxCell>
        </object>
        <mxCell id="0UKaycL4rT2quDGroTpY-2" value="«Process»&lt;br&gt;&lt;b&gt;Agregador de resultados&lt;/b&gt;" style="html=1;dropTarget=0;whiteSpace=wrap;" vertex="1" parent="1">
          <mxGeometry x="310" y="260" width="180" height="90" as="geometry" />
        </mxCell>
        <mxCell id="0UKaycL4rT2quDGroTpY-3" value="" style="shape=module;jettyWidth=8;jettyHeight=4;" vertex="1" parent="0UKaycL4rT2quDGroTpY-2">
          <mxGeometry x="1" width="20" height="20" relative="1" as="geometry">
            <mxPoint x="-27" y="7" as="offset" />
          </mxGeometry>
        </mxCell>
        <mxCell id="0UKaycL4rT2quDGroTpY-4" value="«Process»&lt;br&gt;&lt;b&gt;Parser&lt;br&gt;&lt;/b&gt;" style="html=1;dropTarget=0;whiteSpace=wrap;" vertex="1" parent="1">
          <mxGeometry x="530" y="260" width="180" height="90" as="geometry" />
        </mxCell>
        <mxCell id="0UKaycL4rT2quDGroTpY-5" value="" style="shape=module;jettyWidth=8;jettyHeight=4;" vertex="1" parent="0UKaycL4rT2quDGroTpY-4">
          <mxGeometry x="1" width="20" height="20" relative="1" as="geometry">
            <mxPoint x="-27" y="7" as="offset" />
          </mxGeometry>
        </mxCell>
        <object placeholders="1" c4Name="Middleware" c4Type="ContainerScopeBoundary" c4Application="Container" label="&lt;font style=&quot;font-size: 16px&quot;&gt;&lt;b&gt;&lt;div style=&quot;text-align: left&quot;&gt;%c4Name%&lt;/div&gt;&lt;/b&gt;&lt;/font&gt;&lt;div style=&quot;text-align: left&quot;&gt;[%c4Application%]&lt;/div&gt;" id="0UKaycL4rT2quDGroTpY-10">
          <mxCell style="rounded=1;fontSize=11;whiteSpace=wrap;html=1;dashed=1;arcSize=20;fillColor=none;strokeColor=#666666;fontColor=#333333;labelBackgroundColor=none;align=left;verticalAlign=bottom;labelBorderColor=none;spacingTop=0;spacing=10;dashPattern=8 4;metaEdit=1;rotatable=0;perimeter=rectanglePerimeter;noLabel=0;labelPadding=0;allowArrows=0;connectable=0;expand=0;recursiveResize=0;editable=1;pointerEvents=0;absoluteArcSize=1;points=[[0.25,0,0],[0.5,0,0],[0.75,0,0],[1,0.25,0],[1,0.5,0],[1,0.75,0],[0.75,1,0],[0.5,1,0],[0.25,1,0],[0,0.75,0],[0,0.5,0],[0,0.25,0]];" vertex="1" parent="1">
            <mxGeometry x="380" y="540" width="250" height="210" as="geometry" />
          </mxCell>
        </object>
        <mxCell id="0UKaycL4rT2quDGroTpY-11" value="«Process»&lt;br&gt;&lt;b&gt;RabbitMQ&lt;br&gt;&lt;/b&gt;" style="html=1;dropTarget=0;whiteSpace=wrap;" vertex="1" parent="1">
          <mxGeometry x="-130" y="600" width="180" height="90" as="geometry" />
        </mxCell>
        <mxCell id="0UKaycL4rT2quDGroTpY-12" value="" style="shape=module;jettyWidth=8;jettyHeight=4;" vertex="1" parent="0UKaycL4rT2quDGroTpY-11">
          <mxGeometry x="1" width="20" height="20" relative="1" as="geometry">
            <mxPoint x="-27" y="7" as="offset" />
          </mxGeometry>
        </mxCell>
        <mxCell id="0UKaycL4rT2quDGroTpY-13" value="«Process»&lt;br&gt;&lt;b&gt;QueueManager&lt;br&gt;&lt;/b&gt;" style="html=1;dropTarget=0;whiteSpace=wrap;" vertex="1" parent="1">
          <mxGeometry x="414" y="590" width="180" height="90" as="geometry" />
        </mxCell>
        <mxCell id="0UKaycL4rT2quDGroTpY-14" value="" style="shape=module;jettyWidth=8;jettyHeight=4;" vertex="1" parent="0UKaycL4rT2quDGroTpY-13">
          <mxGeometry x="1" width="20" height="20" relative="1" as="geometry">
            <mxPoint x="-27" y="7" as="offset" />
          </mxGeometry>
        </mxCell>
        <mxCell id="0UKaycL4rT2quDGroTpY-15" value="" style="endArrow=classic;html=1;rounded=0;startArrow=classic;startFill=1;" edge="1" parent="1">
          <mxGeometry width="50" height="50" relative="1" as="geometry">
            <mxPoint x="500" y="410" as="sourcePoint" />
            <mxPoint x="500" y="540" as="targetPoint" />
          </mxGeometry>
        </mxCell>
        <object placeholders="1" c4Name="Filtro por escalas" c4Type="ContainerScopeBoundary" c4Application="Container" label="&lt;font style=&quot;font-size: 16px&quot;&gt;&lt;b&gt;&lt;div style=&quot;text-align: left&quot;&gt;%c4Name%&lt;/div&gt;&lt;/b&gt;&lt;/font&gt;&lt;div style=&quot;text-align: left&quot;&gt;[%c4Application%]&lt;/div&gt;" id="0UKaycL4rT2quDGroTpY-16">
          <mxCell style="rounded=1;fontSize=11;whiteSpace=wrap;html=1;dashed=1;arcSize=20;fillColor=none;strokeColor=#666666;fontColor=#333333;labelBackgroundColor=none;align=left;verticalAlign=bottom;labelBorderColor=none;spacingTop=0;spacing=10;dashPattern=8 4;metaEdit=1;rotatable=0;perimeter=rectanglePerimeter;noLabel=0;labelPadding=0;allowArrows=0;connectable=0;expand=0;recursiveResize=0;editable=1;pointerEvents=0;absoluteArcSize=1;points=[[0.25,0,0],[0.5,0,0],[0.75,0,0],[1,0.25,0],[1,0.5,0],[1,0.75,0],[0.75,1,0],[0.5,1,0],[0.25,1,0],[0,0.75,0],[0,0.5,0],[0,0.25,0]];" vertex="1" parent="1">
            <mxGeometry x="10" y="930" width="240" height="210" as="geometry" />
          </mxCell>
        </object>
        <mxCell id="0UKaycL4rT2quDGroTpY-18" value="" style="endArrow=classic;html=1;rounded=0;startArrow=classic;startFill=1;" edge="1" parent="1">
          <mxGeometry width="50" height="50" relative="1" as="geometry">
            <mxPoint x="370" y="645" as="sourcePoint" />
            <mxPoint x="80" y="645" as="targetPoint" />
          </mxGeometry>
        </mxCell>
        <object placeholders="1" c4Name="Filtro por distancia" c4Type="ContainerScopeBoundary" c4Application="Container" label="&lt;font style=&quot;font-size: 16px&quot;&gt;&lt;b&gt;&lt;div style=&quot;text-align: left&quot;&gt;%c4Name%&lt;/div&gt;&lt;/b&gt;&lt;/font&gt;&lt;div style=&quot;text-align: left&quot;&gt;[%c4Application%]&lt;/div&gt;" id="0UKaycL4rT2quDGroTpY-19">
          <mxCell style="rounded=1;fontSize=11;whiteSpace=wrap;html=1;dashed=1;arcSize=20;fillColor=none;strokeColor=#666666;fontColor=#333333;labelBackgroundColor=none;align=left;verticalAlign=bottom;labelBorderColor=none;spacingTop=0;spacing=10;dashPattern=8 4;metaEdit=1;rotatable=0;perimeter=rectanglePerimeter;noLabel=0;labelPadding=0;allowArrows=0;connectable=0;expand=0;recursiveResize=0;editable=1;pointerEvents=0;absoluteArcSize=1;points=[[0.25,0,0],[0.5,0,0],[0.75,0,0],[1,0.25,0],[1,0.5,0],[1,0.75,0],[0.75,1,0],[0.5,1,0],[0.25,1,0],[0,0.75,0],[0,0.5,0],[0,0.25,0]];" vertex="1" parent="1">
            <mxGeometry x="280" y="930" width="240" height="540" as="geometry" />
          </mxCell>
        </object>
        <object placeholders="1" c4Name="Filtro por rapidez y escalas" c4Type="ContainerScopeBoundary" c4Application="Container" label="&lt;font style=&quot;font-size: 16px&quot;&gt;&lt;b&gt;&lt;div style=&quot;text-align: left&quot;&gt;%c4Name%&lt;/div&gt;&lt;/b&gt;&lt;/font&gt;&lt;div style=&quot;text-align: left&quot;&gt;[%c4Application%]&lt;/div&gt;" id="0UKaycL4rT2quDGroTpY-20">
          <mxCell style="rounded=1;fontSize=11;whiteSpace=wrap;html=1;dashed=1;arcSize=20;fillColor=none;strokeColor=#666666;fontColor=#333333;labelBackgroundColor=none;align=left;verticalAlign=bottom;labelBorderColor=none;spacingTop=0;spacing=10;dashPattern=8 4;metaEdit=1;rotatable=0;perimeter=rectanglePerimeter;noLabel=0;labelPadding=0;allowArrows=0;connectable=0;expand=0;recursiveResize=0;editable=1;pointerEvents=0;absoluteArcSize=1;points=[[0.25,0,0],[0.5,0,0],[0.75,0,0],[1,0.25,0],[1,0.5,0],[1,0.75,0],[0.75,1,0],[0.5,1,0],[0.25,1,0],[0,0.75,0],[0,0.5,0],[0,0.25,0]];" vertex="1" parent="1">
            <mxGeometry x="860" y="930" width="240" height="210" as="geometry" />
          </mxCell>
        </object>
        <object placeholders="1" c4Name="Filtro por promedio" c4Type="ContainerScopeBoundary" c4Application="Container" label="&lt;font style=&quot;font-size: 16px&quot;&gt;&lt;b&gt;&lt;div style=&quot;text-align: left&quot;&gt;%c4Name%&lt;/div&gt;&lt;/b&gt;&lt;/font&gt;&lt;div style=&quot;text-align: left&quot;&gt;[%c4Application%]&lt;/div&gt;" id="0UKaycL4rT2quDGroTpY-21">
          <mxCell style="rounded=1;fontSize=11;whiteSpace=wrap;html=1;dashed=1;arcSize=20;fillColor=none;strokeColor=#666666;fontColor=#333333;labelBackgroundColor=none;align=left;verticalAlign=bottom;labelBorderColor=none;spacingTop=0;spacing=10;dashPattern=8 4;metaEdit=1;rotatable=0;perimeter=rectanglePerimeter;noLabel=0;labelPadding=0;allowArrows=0;connectable=0;expand=0;recursiveResize=0;editable=1;pointerEvents=0;absoluteArcSize=1;points=[[0.25,0,0],[0.5,0,0],[0.75,0,0],[1,0.25,0],[1,0.5,0],[1,0.75,0],[0.75,1,0],[0.5,1,0],[0.25,1,0],[0,0.75,0],[0,0.5,0],[0,0.25,0]];" vertex="1" parent="1">
            <mxGeometry x="1160" y="930" width="240" height="210" as="geometry" />
          </mxCell>
        </object>
        <object placeholders="1" c4Name="Sumador tarifas" c4Type="ContainerScopeBoundary" c4Application="Container" label="&lt;font style=&quot;font-size: 16px&quot;&gt;&lt;b&gt;&lt;div style=&quot;text-align: left&quot;&gt;%c4Name%&lt;/div&gt;&lt;/b&gt;&lt;/font&gt;&lt;div style=&quot;text-align: left&quot;&gt;[%c4Application%]&lt;/div&gt;" id="6WSLS-vSpRc_zBIWD3NZ-1">
          <mxCell style="rounded=1;fontSize=11;whiteSpace=wrap;html=1;dashed=1;arcSize=20;fillColor=none;strokeColor=#666666;fontColor=#333333;labelBackgroundColor=none;align=left;verticalAlign=bottom;labelBorderColor=none;spacingTop=0;spacing=10;dashPattern=8 4;metaEdit=1;rotatable=0;perimeter=rectanglePerimeter;noLabel=0;labelPadding=0;allowArrows=0;connectable=0;expand=0;recursiveResize=0;editable=1;pointerEvents=0;absoluteArcSize=1;points=[[0.25,0,0],[0.5,0,0],[0.75,0,0],[1,0.25,0],[1,0.5,0],[1,0.75,0],[0.75,1,0],[0.5,1,0],[0.25,1,0],[0,0.75,0],[0,0.5,0],[0,0.25,0]];" vertex="1" parent="1">
            <mxGeometry x="920" y="550" width="240" height="210" as="geometry" />
          </mxCell>
        </object>
        <mxCell id="6WSLS-vSpRc_zBIWD3NZ-2" value="" style="endArrow=classic;html=1;rounded=0;entryX=1;entryY=0.5;entryDx=0;entryDy=0;startArrow=classic;startFill=1;" edge="1" parent="1">
          <mxGeometry width="50" height="50" relative="1" as="geometry">
            <mxPoint x="920" y="640" as="sourcePoint" />
            <mxPoint x="630" y="640" as="targetPoint" />
          </mxGeometry>
        </mxCell>
        <mxCell id="6WSLS-vSpRc_zBIWD3NZ-3" value="" style="endArrow=classic;html=1;rounded=0;startArrow=classic;startFill=1;" edge="1" parent="1">
          <mxGeometry width="50" height="50" relative="1" as="geometry">
            <mxPoint x="430" y="760" as="sourcePoint" />
            <mxPoint x="130" y="920" as="targetPoint" />
            <Array as="points">
              <mxPoint x="430" y="840" />
              <mxPoint x="130" y="840" />
            </Array>
          </mxGeometry>
        </mxCell>
        <mxCell id="6WSLS-vSpRc_zBIWD3NZ-4" value="" style="endArrow=classic;html=1;rounded=0;startArrow=classic;startFill=1;" edge="1" parent="1">
          <mxGeometry width="50" height="50" relative="1" as="geometry">
            <mxPoint x="600" y="760" as="sourcePoint" />
            <mxPoint x="1280" y="920" as="targetPoint" />
            <Array as="points">
              <mxPoint x="600" y="840" />
              <mxPoint x="1280" y="840" />
            </Array>
          </mxGeometry>
        </mxCell>
        <mxCell id="6WSLS-vSpRc_zBIWD3NZ-5" value="" style="endArrow=classic;html=1;rounded=0;startArrow=classic;startFill=1;" edge="1" parent="1">
          <mxGeometry width="50" height="50" relative="1" as="geometry">
            <mxPoint x="570" y="760" as="sourcePoint" />
            <mxPoint x="1000" y="920" as="targetPoint" />
            <Array as="points">
              <mxPoint x="570" y="880" />
              <mxPoint x="1000" y="880" />
            </Array>
          </mxGeometry>
        </mxCell>
        <mxCell id="6WSLS-vSpRc_zBIWD3NZ-6" value="" style="endArrow=classic;html=1;rounded=0;startArrow=classic;startFill=1;" edge="1" parent="1">
          <mxGeometry width="50" height="50" relative="1" as="geometry">
            <mxPoint x="460" y="760" as="sourcePoint" />
            <mxPoint x="390" y="920" as="targetPoint" />
            <Array as="points">
              <mxPoint x="460" y="880" />
              <mxPoint x="390" y="880" />
            </Array>
          </mxGeometry>
        </mxCell>
        <object placeholders="1" c4Name="RabbitMQContainer" c4Type="ContainerScopeBoundary" c4Application="Container" label="&lt;font style=&quot;font-size: 16px&quot;&gt;&lt;b&gt;&lt;div style=&quot;text-align: left&quot;&gt;%c4Name%&lt;/div&gt;&lt;/b&gt;&lt;/font&gt;&lt;div style=&quot;text-align: left&quot;&gt;[%c4Application%]&lt;/div&gt;" id="6WSLS-vSpRc_zBIWD3NZ-7">
          <mxCell style="rounded=1;fontSize=11;whiteSpace=wrap;html=1;dashed=1;arcSize=20;fillColor=none;strokeColor=#666666;fontColor=#333333;labelBackgroundColor=none;align=left;verticalAlign=bottom;labelBorderColor=none;spacingTop=0;spacing=10;dashPattern=8 4;metaEdit=1;rotatable=0;perimeter=rectanglePerimeter;noLabel=0;labelPadding=0;allowArrows=0;connectable=0;expand=0;recursiveResize=0;editable=1;pointerEvents=0;absoluteArcSize=1;points=[[0.25,0,0],[0.5,0,0],[0.75,0,0],[1,0.25,0],[1,0.5,0],[1,0.75,0],[0.75,1,0],[0.5,1,0],[0.25,1,0],[0,0.75,0],[0,0.5,0],[0,0.25,0]];" vertex="1" parent="1">
            <mxGeometry x="-160" y="550" width="240" height="210" as="geometry" />
          </mxCell>
        </object>
        <mxCell id="6WSLS-vSpRc_zBIWD3NZ-8" value="«Process»&lt;br&gt;&lt;b&gt;Filtro por escalas&lt;/b&gt;" style="html=1;dropTarget=0;whiteSpace=wrap;" vertex="1" parent="1">
          <mxGeometry x="40" y="980" width="180" height="90" as="geometry" />
        </mxCell>
        <mxCell id="6WSLS-vSpRc_zBIWD3NZ-9" value="" style="shape=module;jettyWidth=8;jettyHeight=4;" vertex="1" parent="6WSLS-vSpRc_zBIWD3NZ-8">
          <mxGeometry x="1" width="20" height="20" relative="1" as="geometry">
            <mxPoint x="-27" y="7" as="offset" />
          </mxGeometry>
        </mxCell>
        <mxCell id="YK3xaPEU3ORU_jMeUiGx-9" style="edgeStyle=orthogonalEdgeStyle;rounded=0;orthogonalLoop=1;jettySize=auto;html=1;exitX=0.5;exitY=1;exitDx=0;exitDy=0;entryX=0.5;entryY=0;entryDx=0;entryDy=0;" edge="1" parent="1" source="6WSLS-vSpRc_zBIWD3NZ-10" target="YK3xaPEU3ORU_jMeUiGx-7">
          <mxGeometry relative="1" as="geometry" />
        </mxCell>
        <mxCell id="6WSLS-vSpRc_zBIWD3NZ-10" value="«Process»&lt;br&gt;&lt;b&gt;Filtro por distancia&lt;/b&gt;" style="html=1;dropTarget=0;whiteSpace=wrap;" vertex="1" parent="1">
          <mxGeometry x="310" y="980" width="180" height="90" as="geometry" />
        </mxCell>
        <mxCell id="6WSLS-vSpRc_zBIWD3NZ-11" value="" style="shape=module;jettyWidth=8;jettyHeight=4;" vertex="1" parent="6WSLS-vSpRc_zBIWD3NZ-10">
          <mxGeometry x="1" width="20" height="20" relative="1" as="geometry">
            <mxPoint x="-27" y="7" as="offset" />
          </mxGeometry>
        </mxCell>
        <mxCell id="6WSLS-vSpRc_zBIWD3NZ-14" value="«Process»&lt;br&gt;&lt;b&gt;Agregador promedios&lt;/b&gt;" style="html=1;dropTarget=0;whiteSpace=wrap;" vertex="1" parent="1">
          <mxGeometry x="1190" y="980" width="180" height="90" as="geometry" />
        </mxCell>
        <mxCell id="6WSLS-vSpRc_zBIWD3NZ-15" value="" style="shape=module;jettyWidth=8;jettyHeight=4;" vertex="1" parent="6WSLS-vSpRc_zBIWD3NZ-14">
          <mxGeometry x="1" width="20" height="20" relative="1" as="geometry">
            <mxPoint x="-27" y="7" as="offset" />
          </mxGeometry>
        </mxCell>
        <mxCell id="6WSLS-vSpRc_zBIWD3NZ-16" value="«Process»&lt;br&gt;&lt;b&gt;Sumador Tarifas&lt;/b&gt;" style="html=1;dropTarget=0;whiteSpace=wrap;" vertex="1" parent="1">
          <mxGeometry x="950" y="590" width="180" height="90" as="geometry" />
        </mxCell>
        <mxCell id="6WSLS-vSpRc_zBIWD3NZ-17" value="" style="shape=module;jettyWidth=8;jettyHeight=4;" vertex="1" parent="6WSLS-vSpRc_zBIWD3NZ-16">
          <mxGeometry x="1" width="20" height="20" relative="1" as="geometry">
            <mxPoint x="-27" y="7" as="offset" />
          </mxGeometry>
        </mxCell>
        <object placeholders="1" c4Name="Calculador promedios" c4Type="ContainerScopeBoundary" c4Application="Container" label="&lt;font style=&quot;font-size: 16px&quot;&gt;&lt;b&gt;&lt;div style=&quot;text-align: left&quot;&gt;%c4Name%&lt;/div&gt;&lt;/b&gt;&lt;/font&gt;&lt;div style=&quot;text-align: left&quot;&gt;[%c4Application%]&lt;/div&gt;" id="6WSLS-vSpRc_zBIWD3NZ-23">
          <mxCell style="rounded=1;fontSize=11;whiteSpace=wrap;html=1;dashed=1;arcSize=20;fillColor=none;strokeColor=#666666;fontColor=#333333;labelBackgroundColor=none;align=left;verticalAlign=bottom;labelBorderColor=none;spacingTop=0;spacing=10;dashPattern=8 4;metaEdit=1;rotatable=0;perimeter=rectanglePerimeter;noLabel=0;labelPadding=0;allowArrows=0;connectable=0;expand=0;recursiveResize=0;editable=1;pointerEvents=0;absoluteArcSize=1;points=[[0.25,0,0],[0.5,0,0],[0.75,0,0],[1,0.25,0],[1,0.5,0],[1,0.75,0],[0.75,1,0],[0.5,1,0],[0.25,1,0],[0,0.75,0],[0,0.5,0],[0,0.25,0]];" vertex="1" parent="1">
            <mxGeometry x="920" y="320" width="240" height="210" as="geometry" />
          </mxCell>
        </object>
        <mxCell id="6WSLS-vSpRc_zBIWD3NZ-24" value="«Process»&lt;br&gt;&lt;b&gt;Agregador tarifas&lt;br&gt;&lt;/b&gt;" style="html=1;dropTarget=0;whiteSpace=wrap;" vertex="1" parent="1">
          <mxGeometry x="950" y="360" width="180" height="90" as="geometry" />
        </mxCell>
        <mxCell id="6WSLS-vSpRc_zBIWD3NZ-25" value="" style="shape=module;jettyWidth=8;jettyHeight=4;" vertex="1" parent="6WSLS-vSpRc_zBIWD3NZ-24">
          <mxGeometry x="1" width="20" height="20" relative="1" as="geometry">
            <mxPoint x="-27" y="7" as="offset" />
          </mxGeometry>
        </mxCell>
        <mxCell id="6WSLS-vSpRc_zBIWD3NZ-26" value="" style="endArrow=classic;html=1;rounded=0;entryX=1;entryY=0.5;entryDx=0;entryDy=0;startArrow=classic;startFill=1;" edge="1" parent="1">
          <mxGeometry width="50" height="50" relative="1" as="geometry">
            <mxPoint x="910" y="440" as="sourcePoint" />
            <mxPoint x="630" y="600" as="targetPoint" />
            <Array as="points">
              <mxPoint x="780" y="440" />
              <mxPoint x="780" y="600" />
            </Array>
          </mxGeometry>
        </mxCell>
        <mxCell id="YK3xaPEU3ORU_jMeUiGx-1" value="«Process»&lt;br&gt;&lt;b&gt;Filtro por escalas&lt;/b&gt;" style="html=1;dropTarget=0;whiteSpace=wrap;" vertex="1" parent="1">
          <mxGeometry x="890" y="980" width="180" height="90" as="geometry" />
        </mxCell>
        <mxCell id="YK3xaPEU3ORU_jMeUiGx-2" value="" style="shape=module;jettyWidth=8;jettyHeight=4;" vertex="1" parent="YK3xaPEU3ORU_jMeUiGx-1">
          <mxGeometry x="1" width="20" height="20" relative="1" as="geometry">
            <mxPoint x="-27" y="7" as="offset" />
          </mxGeometry>
        </mxCell>
        <object placeholders="1" c4Name="Filtro por rapidez" c4Type="ContainerScopeBoundary" c4Application="Container" label="&lt;font style=&quot;font-size: 16px&quot;&gt;&lt;b&gt;&lt;div style=&quot;text-align: left&quot;&gt;%c4Name%&lt;/div&gt;&lt;/b&gt;&lt;/font&gt;&lt;div style=&quot;text-align: left&quot;&gt;[%c4Application%]&lt;/div&gt;" id="YK3xaPEU3ORU_jMeUiGx-3">
          <mxCell style="rounded=1;fontSize=11;whiteSpace=wrap;html=1;dashed=1;arcSize=20;fillColor=none;strokeColor=#666666;fontColor=#333333;labelBackgroundColor=none;align=left;verticalAlign=bottom;labelBorderColor=none;spacingTop=0;spacing=10;dashPattern=8 4;metaEdit=1;rotatable=0;perimeter=rectanglePerimeter;noLabel=0;labelPadding=0;allowArrows=0;connectable=0;expand=0;recursiveResize=0;editable=1;pointerEvents=0;absoluteArcSize=1;points=[[0.25,0,0],[0.5,0,0],[0.75,0,0],[1,0.25,0],[1,0.5,0],[1,0.75,0],[0.75,1,0],[0.5,1,0],[0.25,1,0],[0,0.75,0],[0,0.5,0],[0,0.25,0]];" vertex="1" parent="1">
            <mxGeometry x="570" y="930" width="240" height="210" as="geometry" />
          </mxCell>
        </object>
        <mxCell id="YK3xaPEU3ORU_jMeUiGx-4" value="«Process»&lt;br&gt;&lt;b&gt;FIltro mas rapidos&lt;/b&gt;" style="html=1;dropTarget=0;whiteSpace=wrap;" vertex="1" parent="1">
          <mxGeometry x="600" y="980" width="180" height="90" as="geometry" />
        </mxCell>
        <mxCell id="YK3xaPEU3ORU_jMeUiGx-5" value="" style="shape=module;jettyWidth=8;jettyHeight=4;" vertex="1" parent="YK3xaPEU3ORU_jMeUiGx-4">
          <mxGeometry x="1" width="20" height="20" relative="1" as="geometry">
            <mxPoint x="-27" y="7" as="offset" />
          </mxGeometry>
        </mxCell>
        <mxCell id="YK3xaPEU3ORU_jMeUiGx-6" value="" style="endArrow=classic;html=1;rounded=0;startArrow=classic;startFill=1;" edge="1" parent="1">
          <mxGeometry width="50" height="50" relative="1" as="geometry">
            <mxPoint x="510" y="760" as="sourcePoint" />
            <mxPoint x="680" y="930" as="targetPoint" />
            <Array as="points">
              <mxPoint x="510" y="900" />
              <mxPoint x="680" y="900" />
            </Array>
          </mxGeometry>
        </mxCell>
        <mxCell id="YK3xaPEU3ORU_jMeUiGx-10" style="edgeStyle=orthogonalEdgeStyle;rounded=0;orthogonalLoop=1;jettySize=auto;html=1;exitX=0.5;exitY=1;exitDx=0;exitDy=0;" edge="1" parent="1" source="YK3xaPEU3ORU_jMeUiGx-7">
          <mxGeometry relative="1" as="geometry">
            <mxPoint x="400" y="1310" as="targetPoint" />
          </mxGeometry>
        </mxCell>
        <mxCell id="YK3xaPEU3ORU_jMeUiGx-7" value="«Process»&lt;br&gt;&lt;b&gt;Calculador distancia directa&lt;br&gt;&lt;/b&gt;" style="html=1;dropTarget=0;whiteSpace=wrap;" vertex="1" parent="1">
          <mxGeometry x="310" y="1150" width="180" height="90" as="geometry" />
        </mxCell>
        <mxCell id="YK3xaPEU3ORU_jMeUiGx-8" value="" style="shape=module;jettyWidth=8;jettyHeight=4;" vertex="1" parent="YK3xaPEU3ORU_jMeUiGx-7">
          <mxGeometry x="1" width="20" height="20" relative="1" as="geometry">
            <mxPoint x="-27" y="7" as="offset" />
          </mxGeometry>
        </mxCell>
        <mxCell id="YK3xaPEU3ORU_jMeUiGx-11" value="«File»&lt;br&gt;&lt;b&gt;Archivo coordenadas&lt;br&gt;&lt;/b&gt;" style="html=1;dropTarget=0;whiteSpace=wrap;" vertex="1" parent="1">
          <mxGeometry x="310" y="1310" width="180" height="90" as="geometry" />
        </mxCell>
        <mxCell id="YK3xaPEU3ORU_jMeUiGx-12" value="" style="shape=module;jettyWidth=8;jettyHeight=4;" vertex="1" parent="YK3xaPEU3ORU_jMeUiGx-11">
          <mxGeometry x="1" width="20" height="20" relative="1" as="geometry">
            <mxPoint x="-27" y="7" as="offset" />
          </mxGeometry>
        </mxCell>
      </root>
    </mxGraphModel>
  </diagram>
</mxfile>
